<?xml version="1.0" encoding="UTF-8" standalone="no"?>
<!DOCTYPE svg PUBLIC "-//W3C//DTD SVG 1.1//EN" "http://www.w3.org/Graphics/SVG/1.1/DTD/svg11.dtd">
<svg width="100%" height="100%" viewBox="0 0 2304 473" version="1.1" xmlns="http://www.w3.org/2000/svg" xmlns:xlink="http://www.w3.org/1999/xlink" xml:space="preserve" xmlns:serif="http://www.serif.com/" style="fill-rule:evenodd;clip-rule:evenodd;stroke-linejoin:round;stroke-miterlimit:2;">
    <g id="g308" transform="matrix(0.557759,0,0,-0.557759,-160.119,9230.61)">
        <path id="path310" d="M1283.84,15949.3C1298.94,15982.8 1306.5,16026.5 1306.5,16080.2C1306.5,16176.7 1276.29,16224.5 1226.78,16224.5C1213.36,16224.5 1200.77,16220.3 1188.19,16211.9L1188.19,15956.8C1192.38,15920.7 1210.84,15899.8 1231.82,15899.8C1251.12,15899.8 1268.74,15916.6 1283.84,15949.3ZM1236.86,15708.5L1000.25,15708.5L1000.25,15716.9C1032.96,15720.2 1048.91,15740.4 1048.91,15776.4L1048.91,16180C1048.91,16224.5 1025.42,16241.3 992.693,16238.8L992.693,16247.1L1179.8,16299.2L1186.51,16296.6L1186.51,16234.6C1218.39,16278.2 1257.84,16300 1304.82,16300C1350.97,16300 1386.21,16282.4 1410.54,16247.1C1435.71,16211.9 1448.3,16169.9 1448.3,16122.1C1448.3,16055.8 1425.64,15999.6 1381.17,15953.5C1336.7,15908.2 1286.36,15885.5 1231.82,15885.5C1215.88,15885.5 1200.77,15888 1188.19,15893.1L1188.19,15776.4C1188.19,15740.4 1204.13,15720.2 1236.86,15716.9L1236.86,15708.5" style="fill:rgb(76,191,114);fill-rule:nonzero;"/>
    </g>
    <g id="g312" transform="matrix(0.557759,0,0,-0.557759,-160.119,9230.61)">
        <path id="path314" d="M1627,16141.4L1741.11,16141.4C1742.79,16237.1 1726.85,16284.9 1694.12,16284.9C1658.04,16284.9 1627,16226.2 1627,16141.4ZM1864.45,16032.3C1840.96,15941.7 1773.83,15885.5 1686.57,15885.5C1632.87,15885.5 1587.56,15904.8 1549.81,15942.6C1512.05,15980.3 1493.59,16028.1 1493.59,16085.2C1493.59,16144.8 1513.73,16196 1553.16,16237.1C1593.44,16279 1640.43,16300 1694.96,16300C1744.47,16300 1784.74,16284.1 1815.78,16251.3C1847.67,16219.5 1864.45,16176.7 1866.97,16123.8L1627,16123.8C1631.2,16026.5 1679.02,15971.1 1748.66,15971.1C1796.49,15971.1 1831.73,15992.1 1855.22,16034.9L1864.45,16032.3" style="fill:rgb(76,191,114);fill-rule:nonzero;"/>
    </g>
    <g id="g316" transform="matrix(0.557759,0,0,-0.557759,-160.119,9230.61)">
        <path id="path318" d="M2127.06,15900.6L1903.87,15900.6L1903.87,15909C1934.93,15912.4 1950.87,15932.5 1950.87,15968.6L1950.87,16180C1950.87,16224.5 1926.54,16241.3 1895.48,16238.8L1895.48,16247.1L2081.75,16299.2L2088.47,16296.6L2088.47,16229.5C2132.1,16276.5 2179.09,16300 2229.43,16300C2293.2,16300 2335.15,16261.4 2335.15,16190.9L2335.15,15968.6C2335.15,15932.5 2351.09,15912.4 2382.14,15909L2382.14,15900.6L2158.11,15900.6L2158.11,15908.2C2184.96,15910.7 2195.87,15925.8 2195.87,15968.6L2195.87,16176.7C2195.87,16217.8 2179.93,16237.9 2148.88,16237.9C2129.59,16237.9 2109.44,16228.7 2090.14,16211.1L2090.14,15968.6C2090.14,15930.8 2102.73,15910.7 2127.06,15908.2L2127.06,15900.6" style="fill:rgb(76,191,114);fill-rule:nonzero;"/>
    </g>
    <g id="g320" transform="matrix(0.563186,0,0,-0.563186,-160.119,9230.61)">
        <path id="path322" d="M2651.67,16110.5L2564.42,16110.5L2564.42,15860.4C2564.42,15829.7 2583.53,15808.9 2609.29,15808.9C2625.08,15808.9 2640.04,15818.9 2652.5,15838L2662.47,15831.3C2629.23,15772.3 2577.71,15734.1 2522.04,15734.1C2465.53,15734.1 2426.48,15774.8 2426.48,15832.2L2426.48,16108.9L2379.94,16108.9L2379.94,16118C2414.01,16128 2448.08,16150.4 2481.32,16186.2C2515.39,16221.9 2538.66,16259.3 2552.79,16300L2564.42,16300L2564.42,16128L2651.67,16128L2651.67,16110.5" style="fill:rgb(76,191,114);fill-rule:nonzero;"/>
    </g>
    <g id="g324" transform="matrix(0.565798,0,0,-0.565798,-160.119,9230.61)">
        <path id="path326" d="M2890.86,15674.7L2673.33,15674.7L2673.33,15683C2702.28,15686.3 2717.16,15706.1 2717.16,15741.7L2717.16,16185.9C2717.16,16231.3 2695.66,16247.1 2665.88,16244.6L2665.88,16252.9L2847.86,16300L2854.47,16297.5L2854.47,16001.4C2896.65,16046.1 2942.98,16068.4 2991.77,16068.4C3054.64,16068.4 3095.17,16030.4 3095.17,15960.9L3095.17,15741.7C3095.17,15706.1 3110.88,15686.3 3141.49,15683L3141.49,15674.7L2921.47,15674.7L2921.47,15682.1C2947.11,15684.6 2957.87,15700.3 2957.87,15740.9L2957.87,15946.8C2957.87,15986.5 2939.66,16007.2 2912.37,16007.2C2893.35,16007.2 2873.5,15998.1 2854.47,15980.7L2854.47,15740.9C2854.47,15704.5 2866.88,15684.6 2890.86,15682.1L2890.86,15674.7" style="fill:rgb(76,191,114);fill-rule:nonzero;"/>
    </g>
    <g id="g328" transform="matrix(0.557759,0,0,-0.557759,-160.119,9230.61)">
        <path id="path330" d="M3356.24,16141.4L3470.35,16141.4C3472.04,16237.1 3456.1,16284.9 3423.37,16284.9C3387.29,16284.9 3356.24,16226.2 3356.24,16141.4ZM3593.69,16032.3C3570.21,15941.7 3503.08,15885.5 3415.82,15885.5C3362.12,15885.5 3316.81,15904.8 3279.05,15942.6C3241.29,15980.3 3222.84,16028.1 3222.84,16085.2C3222.84,16144.8 3242.97,16196 3282.41,16237.1C3322.68,16279 3369.67,16300 3424.21,16300C3473.71,16300 3513.99,16284.1 3545.03,16251.3C3576.91,16219.5 3593.69,16176.7 3596.21,16123.8L3356.24,16123.8C3360.44,16026.5 3408.27,15971.1 3477.91,15971.1C3525.73,15971.1 3560.98,15992.1 3584.47,16034.9L3593.69,16032.3" style="fill:rgb(76,191,114);fill-rule:nonzero;"/>
    </g>
    <g id="g332" transform="matrix(0.557759,0,0,-0.557759,-160.119,9230.61)">
        <path id="path334" d="M3852.95,15951C3852.95,16034 3643.2,16031.5 3643.2,16170.8C3643.2,16244.6 3706.12,16300 3809.33,16300C3857.15,16300 3901.62,16289.9 3941.9,16269L3913.37,16164.1L3904.14,16164.9C3884,16237.9 3839.53,16282.4 3791.71,16282.4C3758.99,16282.4 3735.49,16263.9 3735.49,16236.2C3735.49,16205.2 3769.89,16180.9 3812.69,16160.7C3873.93,16131.3 3953.65,16096.1 3953.65,16013.9C3953.65,15936.7 3888.2,15885.5 3780.8,15885.5C3722.9,15885.5 3672.56,15894.7 3631.45,15914L3665.01,16033.2L3675.08,16032.3C3688.5,15952.6 3735.49,15900.6 3791.71,15900.6C3828.63,15900.6 3852.95,15921.6 3852.95,15951" style="fill:rgb(76,191,114);fill-rule:nonzero;"/>
    </g>
    <g id="g336" transform="matrix(0.557759,0,0,-0.557759,-160.119,9230.61)">
        <path id="path338" d="M4206.18,15900.6C4249.82,15900.6 4271.63,15964.4 4271.63,16091.1C4271.63,16214.4 4246.46,16284.9 4202.83,16284.9C4160.03,16284.9 4139.06,16222 4139.06,16095.3C4139.06,15973.6 4165.07,15900.6 4206.18,15900.6ZM4055.16,15945.1C4014.88,15984.5 3994.74,16033.2 3994.74,16091.1C3994.74,16148.1 4015.72,16196.8 4056.83,16237.9C4098.79,16279 4148.29,16300 4206.18,16300C4268.27,16300 4318.62,16279.9 4358.05,16240.4C4397.49,16201 4417.62,16151.5 4417.62,16093.6C4417.62,16037.4 4397.49,15988.7 4356.37,15947.6C4315.26,15906.5 4265.75,15885.5 4206.18,15885.5C4145.77,15885.5 4095.43,15905.6 4055.16,15945.1" style="fill:rgb(76,191,114);fill-rule:nonzero;"/>
    </g>
    <g id="g340" transform="matrix(0.566169,0,0,-0.566169,-160.119,9230.61)">
        <path id="path342" d="M942.617,15976.9C942.617,15798.5 794.627,15653.8 612.095,15653.8C429.562,15653.8 281.573,15798.5 281.573,15976.9L358.349,16002.4L454.236,16013.5C453.7,16003.7 454.236,15987 454.236,15976.9C454.236,15817.6 524.875,15688.5 612.095,15688.5C699.257,15688.5 769.953,15817.6 769.953,15976.9C769.953,16136.2 699.257,16265.4 612.095,16265.4C607.965,16265.4 598.369,16264.7 594.346,16264.1L599.613,16284.1L605.974,16299.9C608.013,16299.9 610.004,16300 612.095,16300C794.627,16300 942.617,16155.3 942.617,15976.9" style="fill:rgb(76,191,114);fill-rule:nonzero;"/>
    </g>
    <g id="g344" transform="matrix(0.303685,0,0,-0.303685,-160.119,9230.61)">
        <g id="g346">
            <clipPath id="_clip1">
                <path d="M1752.48,29709.2L1752.34,29709.2C1755.33,29732.1 1757.01,29755.3 1757.3,29778.9C1757.13,29756.2 1755.6,29732.9 1752.48,29709.2M1255.74,30281.8C1233.01,30299.1 1208.74,30311.7 1183.47,30318.6C1208.74,30312 1232.97,30299.4 1255.74,30281.8M1129.74,30388.4L1131.27,30388.4L1129.74,30388.4"/>
            </clipPath>
            <g clip-path="url(#_clip1)">
                <g id="g352" transform="matrix(1.86432,0,0,1.86432,0,0)">
                    <path id="path362" d="M940.01,15935.7L939.934,15935.7C941.539,15947.9 942.44,15960.4 942.595,15973C942.503,15960.8 941.684,15948.4 940.01,15935.7M673.563,16242.8C661.373,16252.1 648.353,16258.8 634.798,16262.5C648.353,16259 661.35,16252.3 673.563,16242.8M605.978,16300L606.799,16300L605.978,16300" style="fill:url(#_Linear2);fill-rule:nonzero;"/>
                </g>
            </g>
        </g>
    </g>
    <g id="g364" transform="matrix(0.303685,0,0,-0.303685,-160.119,9230.61)">
        <g id="g366">
            <clipPath id="_clip3">
                <path d="M1752.34,29709.2L1435.96,29748.8C1442.25,29859.7 1424.33,29970.5 1389.75,30077.2C1361.81,30163.4 1313.89,30237.7 1255.74,30281.8C1232.97,30299.4 1208.74,30312 1183.47,30318.6C1168.96,30322.6 1154.13,30324.7 1139.09,30324.7C1128.84,30324.7 1118.48,30323.7 1108.06,30321.7L1129.74,30388.4L1131.27,30388.4C1132.58,30388.5 1133.85,30388.5 1135.15,30388.5C1326.11,30388.5 1498.03,30311.2 1624.03,30159.9C1682.79,30089.4 1758.55,29949.4 1757.3,29778.9C1757.01,29755.3 1755.33,29732.1 1752.34,29709.2"/>
            </clipPath>
            <g clip-path="url(#_clip3)">
                <g id="g372" transform="matrix(1.86432,0,0,1.86432,0,0)">
                    <path id="path382" d="M939.934,15935.7L770.232,15956.9C773.605,16016.4 763.992,16075.8 745.445,16133C730.458,16179.3 704.755,16219.1 673.563,16242.8C661.349,16252.3 648.352,16259 634.798,16262.5C627.016,16264.7 619.061,16265.8 610.994,16265.8C605.496,16265.8 599.939,16265.3 594.349,16264.2L605.978,16300L608.88,16300C711.309,16300 803.526,16258.6 871.111,16177.4C902.628,16139.6 943.265,16064.5 942.595,15973C942.44,15960.4 941.539,15947.9 939.934,15935.7" style="fill:url(#_Linear4);fill-rule:nonzero;"/>
                </g>
            </g>
        </g>
    </g>
    <g id="g384" transform="matrix(0.303685,0,0,-0.303685,-160.119,9230.61)">
        <g id="g386">
            <clipPath id="_clip5">
                <path d="M601.453,29495.4C601.395,29495.5 601.332,29495.6 601.273,29495.7C598.238,29501.1 595.297,29506.5 592.453,29511.9C595.371,29506.4 598.363,29500.9 601.453,29495.4M525.613,29786.6C525.59,29788.7 525.578,29790.9 525.578,29793L578.781,29804.2L525.613,29786.6M846.52,29816.5C846.359,29829.7 846.301,29843.2 846.785,29853.2C846.68,29841 846.574,29828.8 846.52,29816.5M782.539,29847L846.848,29860.5C846.832,29858.5 846.813,29856.5 846.797,29854.4L782.539,29847"/>
            </clipPath>
            <g clip-path="url(#_clip5)">
                <g id="g392" transform="matrix(1.83194,0,0,1.83194,0,0)">
                    <path id="path402" d="M328.316,16100.7C328.284,16100.7 328.25,16100.8 328.218,16100.8C326.561,16103.8 324.955,16106.7 323.403,16109.7C324.996,16106.7 326.629,16103.7 328.316,16100.7M286.917,16259.6C286.904,16260.8 286.898,16262 286.898,16263.2L315.94,16269.3L286.917,16259.6M462.09,16276C462.003,16283.2 461.971,16290.5 462.235,16296C462.178,16289.3 462.12,16282.7 462.09,16276M427.165,16292.6L462.269,16300C462.261,16298.9 462.25,16297.8 462.242,16296.7L427.165,16292.6" style="fill:url(#_Linear6);fill-rule:nonzero;"/>
                </g>
            </g>
        </g>
    </g>
    <g id="g404" transform="matrix(0.303685,0,0,-0.303685,-160.119,9230.61)">
        <g id="g406">
            <clipPath id="_clip7">
                <path d="M805.156,29281.6C740.625,29320.5 648.785,29412.1 601.453,29495.4C598.363,29500.9 595.371,29506.4 592.453,29511.9C547.516,29598 526.547,29694.3 525.613,29786.6L578.781,29804.2L782.539,29847L846.797,29854.4C846.793,29854 846.789,29853.6 846.785,29853.2C846.301,29843.2 846.359,29829.7 846.52,29816.5C846.098,29722.5 848.723,29627.1 878.082,29541.4C901.18,29473.9 903.391,29348.2 993.914,29317.2L805.156,29281.6"/>
            </clipPath>
            <g clip-path="url(#_clip7)">
                <g id="g412" transform="matrix(1.83156,0,0,1.83156,0,0)">
                    <path id="path422" d="M439.601,15987.3C404.369,16008.5 354.226,16058.5 328.383,16104C326.696,16107 325.062,16110 323.469,16113C298.934,16160 287.486,16212.6 286.976,16262.9L316.005,16272.6L427.253,16296L462.337,16300C462.334,16299.8 462.332,16299.6 462.33,16299.3C462.066,16293.9 462.098,16286.5 462.185,16279.3C461.955,16228 463.388,16175.9 479.418,16129.1C492.029,16092.2 493.236,16023.6 542.66,16006.7L439.601,15987.3" style="fill:url(#_Linear8);fill-rule:nonzero;"/>
                </g>
            </g>
        </g>
    </g>
    <g id="g424" transform="matrix(0.566165,0,0,-0.566165,-160.119,9230.61)">
        <path id="path426" d="M605.985,16300C570.669,16208.6 563.094,16048.4 559.051,16024.7C459.817,16017.3 378.91,16003.9 281.574,15977C298.452,16242.1 494.682,16289.5 605.985,16300" style="fill:rgb(76,191,114);fill-rule:nonzero;"/>
    </g>
    <defs>
        <linearGradient id="_Linear2" x1="0" y1="0" x2="1" y2="0" gradientUnits="userSpaceOnUse" gradientTransform="matrix(754.378,-202.135,202.135,754.378,1059.66,30141)"><stop offset="0" style="stop-color:rgb(159,155,160);stop-opacity:1"/><stop offset="0.08" style="stop-color:rgb(159,155,160);stop-opacity:1"/><stop offset="1" style="stop-color:rgb(242,242,241);stop-opacity:1"/></linearGradient>
        <linearGradient id="_Linear4" x1="0" y1="0" x2="1" y2="0" gradientUnits="userSpaceOnUse" gradientTransform="matrix(754.378,-202.135,202.135,754.378,1059.66,30141)"><stop offset="0" style="stop-color:rgb(52,127,83);stop-opacity:1"/><stop offset="0.08" style="stop-color:rgb(52,127,83);stop-opacity:1"/><stop offset="1" style="stop-color:rgb(76,191,114);stop-opacity:1"/></linearGradient>
        <linearGradient id="_Linear6" x1="0" y1="0" x2="1" y2="0" gradientUnits="userSpaceOnUse" gradientTransform="matrix(150.331,-561.041,561.041,150.331,674.097,29832.8)"><stop offset="0" style="stop-color:rgb(159,155,160);stop-opacity:1"/><stop offset="0.08" style="stop-color:rgb(159,155,160);stop-opacity:1"/><stop offset="1" style="stop-color:rgb(242,242,241);stop-opacity:1"/></linearGradient>
        <linearGradient id="_Linear8" x1="0" y1="0" x2="1" y2="0" gradientUnits="userSpaceOnUse" gradientTransform="matrix(150.331,-561.041,561.041,150.331,674.097,29832.8)"><stop offset="0" style="stop-color:rgb(52,127,83);stop-opacity:1"/><stop offset="0.08" style="stop-color:rgb(52,127,83);stop-opacity:1"/><stop offset="1" style="stop-color:rgb(76,191,114);stop-opacity:1"/></linearGradient>
    </defs>
</svg>
